<?xml version="1.0" encoding="UTF-8" standalone="no"?>
<svg
   xmlns:dc="http://purl.org/dc/elements/1.1/"
   xmlns:cc="http://creativecommons.org/ns#"
   xmlns:rdf="http://www.w3.org/1999/02/22-rdf-syntax-ns#"
   xmlns:svg="http://www.w3.org/2000/svg"
   xmlns="http://www.w3.org/2000/svg"
   viewBox="0 0 956.04669 286.66266"
   height="286.66266"
   width="956.04669"
   xml:space="preserve"
   id="svg2"
   version="1.1"><metadata
     id="metadata8"><rdf:RDF><cc:Work
         rdf:about=""><dc:format>image/svg+xml</dc:format><dc:type
           rdf:resource="http://purl.org/dc/dcmitype/StillImage" /></cc:Work></rdf:RDF></metadata><defs
     id="defs6"><clipPath
       id="clipPath34"
       clipPathUnits="userSpaceOnUse"><path
         id="path32"
         d="M 0,214.997 H 717.035 V 0 H 0 Z" /></clipPath></defs><g
     transform="matrix(1.3333333,0,0,-1.3333333,0,286.66267)"
     id="g10"><g
       transform="translate(17.9372,199.0149)"
       id="g12"><path
         id="path14"
         style="fill:#ffffff;fill-opacity:1;fill-rule:nonzero;stroke:none"
         d="m 0,0 -1.949,-1.949 38.196,-38.196 1.949,1.949 z" /></g><g
       transform="translate(17.9372,103.7572)"
       id="g16"><path
         id="path18"
         style="fill:#ffffff;fill-opacity:1;fill-rule:nonzero;stroke:none"
         d="m 0,0 -1.949,-1.949 38.196,-38.197 1.949,1.95 z" /></g><g
       transform="translate(54.1841,151.3859)"
       id="g20"><path
         id="path22"
         style="fill:#ffffff;fill-opacity:1;fill-rule:nonzero;stroke:none"
         d="m 0,0 -38.196,-38.196 1.949,-1.949 38.196,38.196 z" /></g><g
       transform="translate(54.1841,56.1283)"
       id="g24"><path
         id="path26"
         style="fill:#ffffff;fill-opacity:1;fill-rule:nonzero;stroke:none"
         d="m 0,0 -38.196,-38.196 1.949,-1.95 38.196,38.197 z" /></g><g
       id="g28"><g
         clip-path="url(#clipPath34)"
         id="g30"><g
           transform="translate(3.587,211.4154)"
           id="g36"><path
             id="path38"
             style="fill:#ffffff;fill-opacity:1;fill-rule:nonzero;stroke:none"
             d="m 0,0 c -2.313,-2.313 -3.587,-5.388 -3.587,-8.659 0,-3.271 1.274,-6.346 3.587,-8.659 2.314,-2.313 5.389,-3.587 8.659,-3.587 3.271,0 6.346,1.274 8.659,3.587 2.313,2.313 3.587,5.388 3.587,8.659 0,3.271 -1.274,6.346 -3.587,8.659 C 12.544,4.775 4.775,4.775 0,0" /></g><g
           transform="translate(59.8752,142.8868)"
           id="g40"><path
             id="path42"
             style="fill:#ffffff;fill-opacity:1;fill-rule:nonzero;stroke:none"
             d="m 0,0 c 3.275,0 6.349,1.272 8.659,3.582 4.775,4.775 4.775,12.543 0,17.318 -4.775,4.775 -12.543,4.775 -17.318,0 -4.775,-4.775 -4.775,-12.543 0,-17.318 C -6.349,1.272 -3.275,0 0,0" /></g><g
           transform="translate(3.587,116.1581)"
           id="g44"><path
             id="path46"
             style="fill:#ffffff;fill-opacity:1;fill-rule:nonzero;stroke:none"
             d="m 0,0 c -4.775,-4.774 -4.775,-12.544 0,-17.318 2.31,-2.31 5.385,-3.582 8.659,-3.582 3.275,0 6.35,1.272 8.659,3.582 4.775,4.774 4.775,12.544 0,17.318 C 12.544,4.775 4.775,4.775 0,0" /></g><g
           transform="translate(51.2159,68.5292)"
           id="g48"><path
             id="path50"
             style="fill:#ffffff;fill-opacity:1;fill-rule:nonzero;stroke:none"
             d="m 0,0 c -4.774,-4.775 -4.774,-12.544 -0.001,-17.318 2.31,-2.31 5.386,-3.582 8.66,-3.582 3.275,0 6.35,1.272 8.659,3.582 4.775,4.774 4.775,12.543 0,17.318 C 12.544,4.775 4.775,4.775 0,0" /></g><g
           transform="translate(3.587,20.9008)"
           id="g52"><path
             id="path54"
             style="fill:#ffffff;fill-opacity:1;fill-rule:nonzero;stroke:none"
             d="m 0,0 c -4.774,-4.775 -4.774,-12.544 -0.001,-17.318 2.31,-2.31 5.386,-3.583 8.66,-3.583 3.275,0 6.35,1.273 8.659,3.583 4.775,4.774 4.775,12.543 0,17.318 C 12.544,4.775 4.775,4.775 0,0" /></g><g
           transform="translate(176.2441,87.0581)"
           id="g56"><path
             id="path58"
             style="fill:#ffffff;fill-opacity:1;fill-rule:nonzero;stroke:none"
             d="m 0,0 c -0.12,-6.702 -2.009,-10.185 -7.216,-13.309 -2.268,-1.34 -4.701,-1.992 -7.439,-1.992 -0.236,0 -0.474,0.005 -0.74,0.014 h -18.316 v 33.105 h 18.962 c 0.28,0.016 0.558,0.024 0.832,0.024 6.219,0 10.706,-3.727 12.412,-7.456 C -0.506,8.499 0,5.82 0,2.422 Z m -33.711,55.937 17.764,0.002 c 0.342,0.028 0.683,0.042 1.022,0.042 5.47,0 10.243,-3.535 11.959,-6.867 1.013,-1.911 1.504,-4.475 1.504,-7.84 v -1.096 c 0,-6.592 -1.569,-10.104 -5.806,-12.966 -1.823,-1.317 -4.169,-1.956 -7.173,-1.956 -10e-4,0 -0.535,0.005 -0.832,0.014 H -33.711 Z M 2.4,17.865 c -1.293,1.402 -3.055,2.712 -5.142,3.832 3.456,2.111 5.634,5.167 7.356,10.218 1.047,3.011 1.497,5.645 1.378,8.019 v 1.46 c 0,6.445 -2.143,21.48 -21.995,21.873 h -25.161 v -86.005 h 25.776 0.007 C 6.352,-22.306 7.453,-4.037 7.453,-0.379 L 7.45,2.483 C 7.926,7.721 5.802,14.191 2.4,17.865" /></g><g
           transform="translate(251.2691,85.962)"
           id="g60"><path
             id="path62"
             style="fill:#ffffff;fill-opacity:1;fill-rule:nonzero;stroke:none"
             d="m 0,0 c -0.118,-6.644 -2.162,-10.124 -7.812,-13.303 -2.347,-1.326 -4.975,-1.998 -7.811,-1.998 -0.24,0 -0.479,0.005 -0.785,0.014 -0.275,-0.017 -0.549,-0.025 -0.825,-0.025 -5.47,0 -11.57,3.179 -13.885,7.226 -1.131,2.039 -1.741,4.687 -1.862,8.073 V 42.6 c 0.119,6.705 2.231,10.273 7.793,13.17 2.715,1.412 5.464,2.129 8.172,2.129 0.206,0 0.413,-0.004 0.687,-0.012 0.266,0.015 0.532,0.023 0.799,0.023 6.004,0 11.727,-3.739 13.797,-7.362 1.109,-1.884 1.733,-4.563 1.854,-7.934 z M -16.381,65.216 C -35.406,64.84 -40.433,50.426 -40.433,42.857 v -42.87 c 0,-7.695 4.925,-22.349 23.564,-22.725 h 0.014 0.013 c 8.283,0.163 14.969,3.109 19.334,8.521 4.717,5.846 5.083,12.257 5.083,14.082 v 42.87 c 0,6.119 -4.299,22.085 -23.956,22.481" /></g><g
           transform="translate(326.7819,85.962)"
           id="g64"><path
             id="path66"
             style="fill:#ffffff;fill-opacity:1;fill-rule:nonzero;stroke:none"
             d="m 0,0 c -0.118,-6.644 -2.162,-10.124 -7.813,-13.303 -2.346,-1.326 -4.974,-1.998 -7.81,-1.998 -0.24,0 -0.479,0.005 -0.785,0.014 -0.275,-0.017 -0.549,-0.025 -0.825,-0.025 -5.47,0 -11.57,3.179 -13.885,7.226 -1.132,2.039 -1.741,4.687 -1.862,8.073 V 42.6 c 0.119,6.705 2.231,10.273 7.793,13.17 2.715,1.412 5.464,2.129 8.172,2.129 0.206,0 0.413,-0.004 0.687,-0.012 0.266,0.015 0.532,0.023 0.799,0.023 6.004,0 11.727,-3.739 13.797,-7.362 1.109,-1.884 1.733,-4.563 1.854,-7.934 z M -16.381,65.216 C -35.406,64.84 -40.433,50.426 -40.433,42.857 v -42.87 c 0,-7.695 4.925,-22.349 23.564,-22.725 h 0.014 0.013 c 8.283,0.163 14.968,3.109 19.334,8.521 4.717,5.846 5.083,12.257 5.083,14.082 v 42.87 c 0,6.119 -4.299,22.085 -23.956,22.481" /></g><g
           transform="translate(398.2087,106.2655)"
           id="g68"><path
             id="path70"
             style="fill:#ffffff;fill-opacity:1;fill-rule:nonzero;stroke:none"
             d="m 0,0 -20.596,12.186 c -4.929,2.766 -8.062,7.676 -8.177,12.802 0,4.658 1.754,7.569 6.254,10.383 2.383,1.475 5.364,2.223 8.862,2.223 0.245,0 0.493,-0.004 0.766,-0.011 10.01,0 16.735,-5.502 16.74,-13.775 0.352,-2.824 2.124,-3.538 3.687,-3.636 2.126,0.283 3.348,1.505 3.637,3.72 0,12.793 -9.67,21.386 -24.064,21.386 -13.74,0 -23.335,-8.243 -23.335,-20.046 0,-7.724 4.39,-15.222 11.177,-19.1 L -4.215,-6.05 c 5.895,-3.354 9.277,-9.086 9.277,-15.728 0,-8.669 -6.88,-14.055 -17.953,-14.055 -10.397,0 -16.856,5.759 -16.857,15.075 -0.147,2.183 -1.377,3.412 -3.649,3.556 -2.197,-0.144 -3.538,-1.44 -3.681,-3.601 0,-13.594 9.769,-22.726 24.309,-22.726 15.122,0 25.283,8.789 25.283,21.873 C 12.514,-12.368 8.306,-5.083 0,0" /></g><g
           transform="translate(485.0671,150.3249)"
           id="g72"><path
             id="path74"
             style="fill:#ffffff;fill-opacity:1;fill-rule:nonzero;stroke:none"
             d="m 0,0 -47.299,-0.002 c -1.473,-0.097 -3.309,-0.828 -3.677,-3.761 l -0.01,-0.087 0.01,-0.088 c 0.285,-2.125 1.507,-3.346 3.722,-3.634 h 20.024 v -76.819 c 0.14,-2.264 1.37,-3.537 3.557,-3.682 l 0.045,-0.004 0.046,0.004 c 2.234,0.148 3.54,1.456 3.681,3.725 v 76.776 l 19.99,0.005 c 2.126,0.283 3.348,1.504 3.631,3.631 L 3.731,-3.85 3.72,-3.763 C 3.355,-0.83 1.52,-0.099 0,0" /></g><g
           transform="translate(557.0098,89.7919)"
           id="g76"><path
             id="path78"
             style="fill:#ffffff;fill-opacity:1;fill-rule:nonzero;stroke:none"
             d="M 0,0 -0.091,0.011 -0.18,-0.001 c -2.075,-0.297 -3.246,-1.566 -3.385,-3.707 -0.119,-6.65 -2.238,-10.287 -7.815,-13.425 -2.347,-1.326 -4.974,-1.998 -7.812,-1.998 -0.238,0 -0.477,0.005 -0.784,0.014 -0.274,-0.017 -0.548,-0.025 -0.825,-0.025 -5.47,0 -11.57,3.179 -13.882,7.227 -1.133,2.038 -1.743,4.686 -1.865,8.073 V 38.77 c 0.12,6.705 2.233,10.275 7.794,13.17 2.715,1.412 5.463,2.129 8.172,2.129 0.207,0 0.413,-0.004 0.689,-0.012 0.261,0.017 0.524,0.025 0.789,0.025 5.285,0 11.239,-3.179 13.577,-7.267 1.196,-1.847 1.838,-4.364 1.963,-7.711 0.141,-2.145 1.359,-3.409 3.525,-3.558 2.117,0.141 3.387,1.356 3.681,3.603 0,4.973 -1.86,10.239 -4.978,14.084 -4.19,5.169 -10.615,7.989 -18.613,8.153 C -38.974,61.01 -44,46.596 -44,39.027 V -3.842 c 0,-7.696 4.925,-22.35 23.564,-22.726 h 0.014 0.014 C -1.287,-26.191 3.764,-11.457 3.763,-3.675 3.664,-2.2 2.931,-0.365 0,0" /></g><g
           transform="translate(628.8352,85.962)"
           id="g80"><path
             id="path82"
             style="fill:#ffffff;fill-opacity:1;fill-rule:nonzero;stroke:none"
             d="m 0,0 c -0.119,-6.644 -2.164,-10.124 -7.815,-13.303 -2.347,-1.326 -4.974,-1.998 -7.812,-1.998 -0.238,0 -0.477,0.005 -0.784,0.014 -0.274,-0.017 -0.548,-0.025 -0.825,-0.025 -5.468,0 -11.568,3.179 -13.882,7.226 -1.132,2.039 -1.743,4.687 -1.865,8.073 V 42.6 c 0.12,6.705 2.233,10.275 7.794,13.17 2.715,1.412 5.463,2.129 8.172,2.129 0.207,0 0.413,-0.004 0.687,-0.012 0.265,0.015 0.533,0.023 0.799,0.023 6.003,0 11.728,-3.739 13.798,-7.362 C -0.625,48.663 0,45.984 0.122,42.614 Z M -16.384,65.216 C -35.409,64.84 -40.435,50.426 -40.435,42.857 v -42.87 c 0,-7.695 4.925,-22.349 23.564,-22.725 h 0.014 0.014 c 8.283,0.163 14.969,3.109 19.333,8.521 4.717,5.846 5.084,12.257 5.084,14.082 v 42.87 c 0,6.119 -4.298,22.085 -23.958,22.481" /></g><g
           transform="translate(709.7222,150.3249)"
           id="g84"><path
             id="path86"
             style="fill:#ffffff;fill-opacity:1;fill-rule:nonzero;stroke:none"
             d="m 0,0 c -3.101,0 -5.865,-1.956 -6.897,-4.881 l -14.848,-42.1 -14.846,42.1 C -37.622,-1.956 -40.386,0 -43.488,0 h -10e-4 c -4.039,0 -7.313,-3.274 -7.313,-7.314 l 0.004,-77.119 c 0.287,-2.283 1.635,-3.618 3.89,-3.763 1.475,0.099 3.31,0.832 3.679,3.848 v 74.739 l 16.942,-46.149 c 0.682,-1.924 2.502,-3.209 4.543,-3.209 2.041,0 3.861,1.285 4.543,3.209 l 16.942,46.149 0.005,-74.824 c 0.365,-2.931 2.2,-3.664 3.675,-3.763 l 0.043,-0.003 0.044,0.002 c 2.277,0.144 3.664,1.53 3.805,3.849 V -7.313 C 7.313,-3.274 4.039,0 0,0" /></g></g></g></g></svg>